# xmcd
#
# Track frame offsets: 
#        150
#        15315
#        26195
#        40523
#        53515
#        74428
#        84023
#        119885
#        132990
#        152027
#        179173
#        201233
#        227424
#        240950
#        261450
#        285510
#
# Disc length: 4035 seconds
#
# Revision: 0
# Processed by: cddbd v1.5.2PL0 Copyright (c) Steve Scherf et al.
# Submitted via: ExactAudioCopyFreeDBPlugin 1.0
#
DISCID=d60fc110
DTITLE=The Paul Butterfield Blues Band - Born In Chicago
DYEAR=2017
DGENRE=Blues
TTITLE0=Spoonful
TTITLE1=Good Morning Little School Girl
TTITLE2=Born In Chicago
TTITLE3=Mellow Down Easy
TTITLE4=Screamin' (instrumental)
TTITLE5=Come On In
TTITLE6=Work Song (instrumental)
TTITLE7=Mary, Mary
TTITLE8=Born Under A Bad Sign
TTITLE9=Drivin' Wheel (vocal by Bugsy Maugh)
TTITLE10=Last Hope's Gone
TTITLE11=In My Own Dream
TTITLE12=Love March (vocals by Phllip Wilson and Gene Dinwiddie)
TTITLE13=Walking By Myself
TTITLE14=Drowned In My Own Tears (vocal by Gene Dinwiddie)
TTITLE15=Pretty Woman (vocal by Ralph Wash)
EXTD=
EXTT0=
EXTT1=
EXTT2=
EXTT3=
EXTT4=
EXTT5=
EXTT6=
EXTT7=
EXTT8=
EXTT9=
EXTT10=
EXTT11=
EXTT12=
EXTT13=
EXTT14=
EXTT15=
PLAYORDER=
